<svg width="130" height="130" viewBox="0 0 130 130" fill="none" xmlns="http://www.w3.org/2000/svg">
<path d="M117.302 0H12.6977C5.68372 0 0 5.68372 0 12.6977V117.302C0 124.316 5.68372 130 12.6977 130H117.302C124.316 130 130 124.316 130 117.302V12.6977C130 5.68372 124.316 0 117.302 0ZM120.93 113.826C120.93 117.756 117.756 120.93 113.826 120.93H16.1744C12.2442 120.93 9.06977 117.756 9.06977 113.826V16.1744C9.06977 12.2442 12.2442 9.06977 16.1744 9.06977H113.826C117.756 9.06977 120.93 12.2442 120.93 16.1744V113.826Z" fill="white"/>
<path d="M113.794 10.9746C81.4153 10.9746 48.7943 10.9746 16.2339 10.8839C13.2711 10.8839 10.8827 13.2723 10.8827 16.2351V113.675C10.8827 116.637 13.2711 118.996 16.2036 119.026C48.7641 119.026 81.385 119.116 113.764 119.116C116.697 119.116 119.085 116.728 119.085 113.796V16.3258C119.115 13.363 116.727 10.9746 113.794 10.9746ZM113.885 109.896C113.885 112.072 112.132 113.826 109.955 113.826H27.7827C26.6943 113.826 25.7269 113.372 25.0013 112.677C24.2757 111.951 23.8525 110.984 23.8525 109.896C23.8525 109.865 23.8222 109.835 23.792 109.835H19.4385C17.7757 109.835 16.4152 108.475 16.4152 106.812V35.3421C16.4152 33.6793 17.7757 32.3188 19.4385 32.3188H20.8292C22.492 32.3188 23.8525 30.9583 23.8525 29.2955V20.1048C23.8525 17.9281 25.6059 16.1746 27.7827 16.1746H109.955C112.132 16.1746 113.885 17.9281 113.885 20.1048V109.896Z" fill="white"/>
<path d="M55.4162 36.8231H22.886C21.5557 36.8231 20.4673 37.9115 20.4673 39.2417V102.398C20.4673 103.728 21.5557 104.816 22.886 104.816H55.4162L21.7371 70.4417C32.8929 59.2557 44.079 48.0092 55.4162 36.8231Z" fill="white"/>
<path d="M67.9629 36.8231H61.1303C49.8536 47.9185 38.6373 59.1348 27.5419 70.3208C38.6675 81.8092 49.8536 93.3278 61.1303 104.816H67.9629C56.7768 93.3278 45.5303 81.8092 34.4047 70.3208C45.5001 59.1045 56.7466 47.9185 67.9629 36.8231Z" fill="white"/>
<path d="M106.841 50.5791H72.6783V58.4698H75.0969C92.0574 58.4698 105.964 68.7489 105.964 81.3861C105.964 94.0233 92.0574 104.302 75.0969 104.302C74.2807 104.302 73.4644 104.302 72.6783 104.212V104.816H106.841C108.171 104.816 109.26 103.728 109.26 102.398V52.9977C109.26 51.6675 108.171 50.5791 106.841 50.5791Z" fill="white"/>
<path d="M72.9511 97.7419C85.8906 97.7419 86.1022 64.5465 72.9511 64.5465C59.8301 64.5465 60.0418 97.7419 72.9511 97.7419Z" fill="white"/>
</svg>
